<svg id="svg" version="1.1" xmlns="http://www.w3.org/2000/svg" xmlns:xlink="http://www.w3.org/1999/xlink" width="400" height="266.5625" viewBox="0, 0, 400,266.5625"><g id="svgg"><path id="path0" d="M197.882 95.933 C 195.286 103.979,192.151 113.631,191.061 116.933 L 190.181 119.600 174.273 119.733 L 158.365 119.867 163.516 123.588 C 166.349 125.635,169.747 128.106,171.067 129.078 C 172.387 130.051,175.747 132.497,178.533 134.515 C 181.320 136.532,183.692 138.270,183.805 138.377 C 183.983 138.544,182.097 144.879,180.543 149.333 C 178.943 153.920,174.376 168.332,174.487 168.443 C 174.560 168.515,180.180 164.525,186.976 159.576 C 193.773 154.627,199.577 150.528,199.875 150.469 C 200.238 150.396,201.297 151.010,203.075 152.324 C 205.786 154.326,209.430 156.977,216.009 161.733 C 218.037 163.200,220.980 165.335,222.548 166.479 C 224.115 167.622,225.454 168.501,225.523 168.433 C 225.630 168.325,221.740 156.039,219.475 149.333 C 216.437 140.341,215.954 138.560,216.454 138.184 C 217.201 137.622,227.790 129.920,230.271 128.133 C 231.493 127.253,234.557 125.033,237.079 123.200 L 241.665 119.867 225.721 119.733 L 209.778 119.600 209.573 118.933 C 209.329 118.138,204.492 103.203,201.951 95.400 C 200.959 92.357,200.079 89.867,199.994 89.867 C 199.909 89.867,198.959 92.597,197.882 95.933 M201.682 115.133 L 203.136 119.600 201.568 119.679 C 200.706 119.723,199.300 119.723,198.445 119.679 L 196.891 119.600 198.350 115.133 C 199.152 112.677,199.903 110.667,200.018 110.667 C 200.133 110.667,200.881 112.677,201.682 115.133 M187.824 126.333 C 187.964 126.563,186.444 131.483,186.126 131.829 C 186.010 131.955,184.975 131.352,183.825 130.489 C 182.674 129.626,180.983 128.396,180.067 127.755 C 179.150 127.114,178.400 126.487,178.400 126.361 C 178.400 126.081,187.653 126.054,187.824 126.333 M206.380 129.667 C 207.009 131.610,207.748 133.827,208.022 134.594 L 208.521 135.987 207.661 136.653 C 206.264 137.735,201.527 141.197,200.749 141.705 C 200.037 142.171,200.019 142.166,198.482 141.099 C 195.029 138.701,191.602 136.106,191.639 135.917 C 191.661 135.806,192.375 133.560,193.225 130.925 L 194.771 126.133 200.003 126.133 L 205.236 126.133 206.380 129.667 M221.600 126.352 C 221.600 126.732,214.071 132.045,213.857 131.817 C 213.543 131.484,212.044 126.445,212.210 126.279 C 212.447 126.042,221.600 126.113,221.600 126.352 M192.001 144.281 C 194.813 146.284,194.777 146.087,192.612 147.618 C 191.615 148.323,189.877 149.598,188.749 150.450 C 187.621 151.303,186.648 151.910,186.586 151.800 C 186.442 151.544,189.337 142.667,189.564 142.667 C 189.658 142.667,190.755 143.393,192.001 144.281 M212.069 147.133 C 212.872 149.590,213.433 151.637,213.317 151.682 C 213.201 151.728,211.927 150.901,210.486 149.844 C 209.045 148.788,207.357 147.558,206.733 147.111 C 206.110 146.663,205.604 146.230,205.609 146.149 C 205.619 145.967,210.194 142.667,210.436 142.667 C 210.531 142.667,211.266 144.677,212.069 147.133 " stroke="none" fill="#056333" fill-rule="evenodd"></path><path id="path1" d="M0.000 133.333 L 0.000 266.667 200.000 266.667 L 400.000 266.667 400.000 133.333 L 400.000 0.000 200.000 0.000 L 0.000 0.000 0.000 133.333 M201.072 91.755 C 201.442 92.990,201.944 94.540,202.187 95.200 C 202.429 95.860,203.249 98.380,204.007 100.800 C 204.765 103.220,205.498 105.441,205.636 105.735 C 205.774 106.029,206.235 107.409,206.661 108.801 C 208.660 115.343,209.104 116.722,209.446 117.467 C 209.648 117.907,209.858 118.507,209.911 118.800 C 210.006 119.325,210.244 119.334,225.937 119.402 C 243.063 119.476,242.878 119.459,240.865 120.797 C 240.316 121.162,239.147 122.008,238.267 122.678 C 237.387 123.347,236.082 124.309,235.368 124.814 C 234.654 125.320,233.739 125.973,233.336 126.267 C 232.932 126.560,231.852 127.340,230.935 128.000 C 230.018 128.660,228.652 129.646,227.900 130.191 C 227.148 130.736,226.113 131.481,225.600 131.846 C 225.087 132.211,223.527 133.358,222.133 134.395 C 220.740 135.432,218.981 136.701,218.225 137.216 C 216.273 138.545,216.174 138.705,216.638 139.772 C 216.852 140.264,217.646 142.647,218.403 145.067 C 219.160 147.487,219.940 149.887,220.137 150.400 C 220.334 150.913,221.179 153.493,222.015 156.133 C 222.851 158.773,224.126 162.716,224.849 164.896 C 226.489 169.838,226.543 169.760,223.168 167.291 C 222.198 166.581,220.407 165.280,219.189 164.400 C 217.290 163.028,214.967 161.335,212.933 159.840 C 212.378 159.431,208.858 156.893,205.867 154.744 C 204.913 154.059,203.187 152.791,202.029 151.927 C 200.872 151.063,199.852 150.459,199.763 150.585 C 199.599 150.817,196.214 153.297,191.299 156.789 C 189.720 157.910,187.714 159.380,187.283 159.732 C 187.108 159.874,186.492 160.323,185.913 160.729 C 185.334 161.135,183.637 162.367,182.141 163.467 C 180.646 164.567,179.163 165.647,178.847 165.867 C 178.530 166.087,177.380 166.901,176.293 167.677 C 174.161 169.197,173.580 169.205,174.232 167.706 C 174.449 167.208,175.242 164.820,175.995 162.400 C 176.747 159.980,177.536 157.580,177.748 157.067 C 177.960 156.553,178.482 154.993,178.908 153.600 C 180.759 147.549,181.347 145.701,181.581 145.200 C 181.880 144.562,183.573 139.175,183.589 138.814 C 183.600 138.551,182.931 138.021,179.190 135.333 C 177.965 134.453,175.912 132.953,174.626 132.000 C 173.341 131.047,171.235 129.518,169.945 128.603 C 168.655 127.687,166.040 125.792,164.133 124.391 C 162.227 122.990,160.099 121.459,159.405 120.989 C 157.103 119.428,156.652 119.477,174.032 119.402 L 189.930 119.333 190.541 117.600 C 191.082 116.067,191.979 113.289,196.315 99.733 C 196.901 97.900,197.538 96.032,197.729 95.582 C 197.921 95.133,198.345 93.813,198.671 92.649 C 199.830 88.516,200.075 88.425,201.072 91.755 M199.339 113.000 C 199.078 113.990,198.712 115.160,198.525 115.600 C 198.105 116.587,197.333 118.950,197.333 119.248 C 197.333 119.368,198.547 119.467,200.031 119.467 C 202.470 119.467,202.717 119.422,202.605 119.000 C 202.127 117.203,200.103 111.204,199.973 111.202 C 199.885 111.201,199.599 112.010,199.339 113.000 M178.933 126.521 C 178.933 126.587,179.503 127.032,180.200 127.509 C 180.897 127.987,181.587 128.479,181.733 128.602 C 182.487 129.235,185.694 131.467,185.850 131.467 C 186.017 131.467,186.392 130.480,187.342 127.533 L 187.708 126.400 183.321 126.400 C 180.908 126.400,178.933 126.454,178.933 126.521 M194.765 127.133 C 194.276 128.336,191.990 135.578,192.008 135.867 C 192.018 136.013,192.702 136.613,193.528 137.200 C 194.354 137.787,196.146 139.084,197.510 140.084 L 199.990 141.901 201.751 140.617 C 205.255 138.063,206.282 137.330,207.133 136.777 C 207.610 136.467,208.000 136.068,208.000 135.889 C 208.000 135.420,207.228 132.805,206.813 131.867 C 206.618 131.427,206.260 130.347,206.018 129.467 C 205.775 128.587,205.447 127.537,205.289 127.133 L 205.002 126.400 200.033 126.400 L 195.064 126.400 194.765 127.133 M212.545 127.133 C 214.229 132.257,213.826 131.912,216.126 130.200 C 217.062 129.503,218.556 128.410,219.447 127.770 C 220.338 127.130,221.067 126.560,221.067 126.503 C 221.067 126.446,219.095 126.400,216.685 126.400 L 212.304 126.400 212.545 127.133 M189.235 144.085 C 188.331 146.637,186.978 151.067,187.073 151.162 C 187.158 151.247,189.756 149.441,190.861 148.527 C 191.041 148.378,191.728 147.892,192.387 147.447 C 194.281 146.170,194.319 146.267,191.026 143.952 L 189.630 142.971 189.235 144.085 M208.922 143.983 C 205.707 146.255,205.715 146.234,207.556 147.381 C 208.167 147.762,208.847 148.238,209.067 148.438 C 210.127 149.406,212.844 151.245,212.994 151.095 C 213.086 151.003,212.906 150.298,212.593 149.530 C 212.280 148.762,211.754 147.173,211.423 146.000 C 210.538 142.859,210.527 142.849,208.922 143.983 " stroke="none" fill="#c4242c" fill-rule="evenodd"></path><path id="path2" d="M197.364 96.826 C 197.201 97.296,197.075 97.812,197.085 97.973 C 197.096 98.135,197.276 97.797,197.487 97.223 C 197.697 96.649,197.822 96.133,197.765 96.076 C 197.708 96.019,197.528 96.357,197.364 96.826 M202.308 96.533 C 202.611 97.735,203.235 99.202,203.056 98.296 C 202.973 97.872,202.732 97.152,202.522 96.696 C 202.234 96.072,202.181 96.032,202.308 96.533 M193.631 108.293 C 193.467 108.762,193.342 109.278,193.352 109.440 C 193.362 109.601,193.543 109.264,193.753 108.690 C 193.963 108.116,194.089 107.600,194.032 107.543 C 193.975 107.486,193.794 107.823,193.631 108.293 M205.909 107.600 C 205.908 107.747,206.069 108.287,206.267 108.800 C 206.464 109.313,206.630 109.553,206.634 109.333 C 206.639 109.113,206.478 108.573,206.276 108.133 C 206.075 107.693,205.909 107.453,205.909 107.600 M198.831 113.497 C 198.595 114.190,198.448 114.803,198.504 114.860 C 198.561 114.916,198.800 114.395,199.036 113.703 C 199.272 113.010,199.419 112.397,199.363 112.340 C 199.306 112.284,199.067 112.805,198.831 113.497 M191.520 114.853 C 191.125 116.139,191.316 116.330,191.733 115.067 C 191.909 114.534,192.001 114.046,191.938 113.982 C 191.875 113.919,191.686 114.311,191.520 114.853 M202.175 117.200 C 202.175 117.347,202.336 117.887,202.533 118.400 C 202.731 118.913,202.896 119.153,202.901 118.933 C 202.906 118.713,202.744 118.173,202.543 117.733 C 202.341 117.293,202.176 117.053,202.175 117.200 M209.479 118.733 C 209.578 119.063,209.770 119.451,209.904 119.594 C 210.038 119.737,210.013 119.467,209.848 118.994 C 209.510 118.025,209.198 117.805,209.479 118.733 M238.000 122.557 L 237.200 123.244 238.067 122.671 C 238.543 122.355,238.933 122.045,238.933 121.982 C 238.933 121.782,238.820 121.852,238.000 122.557 M236.133 123.890 L 235.333 124.577 236.200 124.004 C 236.677 123.688,237.067 123.379,237.067 123.315 C 237.067 123.116,236.954 123.185,236.133 123.890 M165.867 125.430 C 165.867 125.504,166.227 125.820,166.667 126.133 C 167.107 126.447,167.467 126.643,167.467 126.570 C 167.467 126.496,167.107 126.180,166.667 125.867 C 166.227 125.553,165.867 125.357,165.867 125.430 M233.200 126.023 L 232.400 126.711 233.267 126.137 C 233.743 125.822,234.133 125.512,234.133 125.449 C 234.133 125.249,234.020 125.318,233.200 126.023 M178.400 126.384 C 178.400 126.522,178.539 126.721,178.708 126.825 C 178.899 126.943,178.943 126.899,178.825 126.708 C 178.684 126.480,179.818 126.400,183.202 126.400 L 187.769 126.400 187.605 127.000 C 187.463 127.520,187.480 127.537,187.735 127.131 C 187.897 126.873,187.955 126.543,187.865 126.398 C 187.652 126.053,178.400 126.040,178.400 126.384 M197.267 126.332 C 198.770 126.380,201.230 126.380,202.733 126.332 C 204.237 126.285,203.007 126.246,200.000 126.246 C 196.993 126.246,195.763 126.285,197.267 126.332 M212.174 126.333 C 212.106 126.443,214.149 126.498,216.715 126.455 C 220.291 126.394,221.334 126.451,221.182 126.696 C 221.057 126.898,221.097 126.946,221.292 126.825 C 222.176 126.279,221.260 126.133,216.949 126.133 C 214.391 126.133,212.242 126.223,212.174 126.333 M167.798 126.822 C 167.885 126.963,168.527 127.488,169.225 127.989 C 169.923 128.490,170.422 128.785,170.335 128.644 C 170.248 128.504,169.606 127.979,168.909 127.478 C 168.211 126.976,167.711 126.682,167.798 126.822 M179.200 127.030 C 179.200 127.104,179.560 127.420,180.000 127.733 C 180.440 128.047,180.800 128.243,180.800 128.170 C 180.800 128.096,180.440 127.780,180.000 127.467 C 179.560 127.153,179.200 126.957,179.200 127.030 M205.909 128.667 C 205.908 128.813,206.069 129.353,206.267 129.867 C 206.464 130.380,206.630 130.620,206.634 130.400 C 206.639 130.180,206.478 129.640,206.276 129.200 C 206.075 128.760,205.909 128.520,205.909 128.667 M170.667 128.897 C 170.667 128.970,171.027 129.287,171.467 129.600 C 171.907 129.913,172.267 130.110,172.267 130.036 C 172.267 129.963,171.907 129.647,171.467 129.333 C 171.027 129.020,170.667 128.824,170.667 128.897 M228.400 129.490 L 227.600 130.177 228.467 129.604 C 228.943 129.288,229.333 128.979,229.333 128.915 C 229.333 128.716,229.220 128.785,228.400 129.490 M182.133 129.164 C 182.133 129.237,182.493 129.553,182.933 129.867 C 183.373 130.180,183.733 130.376,183.733 130.303 C 183.733 130.230,183.373 129.913,182.933 129.600 C 182.493 129.287,182.133 129.090,182.133 129.164 M213.238 130.133 C 213.714 132.041,214.055 132.370,214.688 131.533 C 214.988 131.136,214.985 131.116,214.667 131.400 C 214.462 131.583,214.197 131.733,214.080 131.733 C 213.963 131.733,213.861 131.583,213.855 131.400 C 213.848 131.217,213.669 130.707,213.457 130.267 C 213.138 129.605,213.101 129.582,213.238 130.133 M184.933 131.294 C 185.786 132.025,186.170 132.068,186.337 131.450 C 186.425 131.125,186.399 131.126,186.170 131.456 C 185.934 131.796,185.837 131.792,185.416 131.430 C 185.151 131.201,184.753 130.923,184.533 130.811 C 184.313 130.700,184.493 130.917,184.933 131.294 M173.600 131.030 C 173.600 131.104,173.960 131.420,174.400 131.733 C 174.840 132.047,175.200 132.243,175.200 132.170 C 175.200 132.096,174.840 131.780,174.400 131.467 C 173.960 131.153,173.600 130.957,173.600 131.030 M191.786 135.165 C 191.548 135.845,191.591 136.024,192.088 136.436 C 192.649 136.901,192.653 136.901,192.221 136.421 C 191.880 136.043,191.834 135.770,192.028 135.260 C 192.167 134.893,192.232 134.543,192.172 134.483 C 192.111 134.422,191.937 134.729,191.786 135.165 M218.533 136.690 L 217.733 137.377 218.600 136.804 C 219.077 136.488,219.467 136.179,219.467 136.115 C 219.467 135.916,219.354 135.985,218.533 136.690 M207.067 136.957 L 206.267 137.644 207.133 137.071 C 207.610 136.755,208.000 136.445,208.000 136.382 C 208.000 136.182,207.887 136.252,207.067 136.957 M204.133 139.090 L 203.333 139.777 204.200 139.204 C 204.677 138.888,205.067 138.579,205.067 138.515 C 205.067 138.316,204.954 138.385,204.133 139.090 M196.800 139.830 C 196.800 139.904,197.160 140.220,197.600 140.533 C 198.040 140.847,198.400 141.043,198.400 140.970 C 198.400 140.896,198.040 140.580,197.600 140.267 C 197.160 139.953,196.800 139.757,196.800 139.830 M202.123 140.553 L 201.200 141.372 202.200 140.654 C 203.084 140.020,203.371 139.733,203.123 139.733 C 203.081 139.733,202.631 140.102,202.123 140.553 M216.575 140.400 C 216.575 140.547,216.736 141.087,216.933 141.600 C 217.131 142.113,217.296 142.353,217.301 142.133 C 217.306 141.913,217.144 141.373,216.943 140.933 C 216.741 140.493,216.576 140.253,216.575 140.400 M191.200 143.830 C 191.200 143.904,191.560 144.220,192.000 144.533 C 192.440 144.847,192.800 145.043,192.800 144.970 C 192.800 144.896,192.440 144.580,192.000 144.267 C 191.560 143.953,191.200 143.757,191.200 143.830 M188.163 146.300 C 187.927 146.994,187.742 147.690,187.753 147.848 C 187.764 148.005,188.003 147.483,188.285 146.688 C 188.567 145.893,188.752 145.197,188.696 145.140 C 188.639 145.084,188.400 145.606,188.163 146.300 M193.565 145.586 C 194.116 146.066,194.150 146.196,193.831 146.602 C 193.501 147.023,193.511 147.032,193.933 146.701 C 194.567 146.203,194.524 146.003,193.667 145.482 L 192.933 145.035 193.565 145.586 M211.499 145.867 C 211.494 146.087,211.656 146.627,211.857 147.067 C 212.329 148.097,212.336 147.618,211.867 146.400 C 211.669 145.887,211.504 145.647,211.499 145.867 M180.724 148.057 C 180.481 148.817,180.327 149.482,180.381 149.536 C 180.435 149.590,180.683 149.019,180.933 148.267 C 181.183 147.514,181.338 146.849,181.277 146.788 C 181.215 146.726,180.967 147.298,180.724 148.057 M218.699 146.933 C 218.694 147.153,218.856 147.693,219.057 148.133 C 219.529 149.163,219.536 148.684,219.067 147.467 C 218.869 146.953,218.704 146.713,218.699 146.933 M187.600 151.043 C 187.160 151.395,186.692 151.615,186.559 151.533 C 186.426 151.451,186.404 151.523,186.509 151.693 C 186.674 151.961,188.533 150.867,188.533 150.502 C 188.533 150.322,188.415 150.391,187.600 151.043 M198.453 151.223 C 197.837 151.676,197.333 152.103,197.333 152.173 C 197.333 152.243,197.873 151.912,198.533 151.438 C 199.612 150.663,199.896 150.400,199.653 150.400 C 199.608 150.400,199.068 150.770,198.453 151.223 M200.800 150.750 C 200.800 150.816,201.241 151.206,201.779 151.617 C 202.317 152.027,202.674 152.227,202.571 152.061 C 202.360 151.719,200.800 150.565,200.800 150.750 M193.200 155.090 L 192.400 155.777 193.267 155.204 C 193.743 154.888,194.133 154.579,194.133 154.515 C 194.133 154.316,194.020 154.385,193.200 155.090 M207.733 155.830 C 207.733 155.904,208.093 156.220,208.533 156.533 C 208.973 156.847,209.333 157.043,209.333 156.970 C 209.333 156.896,208.973 156.580,208.533 156.267 C 208.093 155.953,207.733 155.757,207.733 155.830 M190.267 157.223 L 189.467 157.911 190.333 157.337 C 190.810 157.022,191.200 156.712,191.200 156.649 C 191.200 156.449,191.087 156.518,190.267 157.223 M177.230 158.833 C 176.993 159.527,176.809 160.224,176.819 160.381 C 176.830 160.538,177.070 160.016,177.352 159.221 C 177.634 158.426,177.819 157.730,177.762 157.674 C 177.706 157.617,177.466 158.139,177.230 158.833 M222.302 158.133 C 222.392 158.500,222.630 159.160,222.830 159.600 C 223.123 160.243,223.162 160.269,223.031 159.733 C 222.941 159.367,222.703 158.707,222.503 158.267 C 222.211 157.624,222.171 157.598,222.302 158.133 M210.667 157.964 C 210.667 158.037,211.027 158.353,211.467 158.667 C 211.907 158.980,212.267 159.176,212.267 159.103 C 212.267 159.030,211.907 158.713,211.467 158.400 C 211.027 158.087,210.667 157.890,210.667 157.964 M216.133 161.992 C 216.939 162.698,217.867 163.302,217.867 163.121 C 217.867 163.068,217.297 162.634,216.600 162.157 C 215.641 161.501,215.528 161.461,216.133 161.992 M218.400 163.564 C 218.400 163.637,218.760 163.953,219.200 164.267 C 219.640 164.580,220.000 164.776,220.000 164.703 C 220.000 164.630,219.640 164.313,219.200 164.000 C 218.760 163.687,218.400 163.490,218.400 163.564 M178.533 165.757 L 177.733 166.444 178.600 165.871 C 179.077 165.555,179.467 165.245,179.467 165.182 C 179.467 164.982,179.354 165.052,178.533 165.757 M175.600 167.890 L 174.800 168.577 175.667 168.004 C 176.143 167.688,176.533 167.379,176.533 167.315 C 176.533 167.116,176.420 167.185,175.600 167.890 " stroke="none" fill="#7a3b2c" fill-rule="evenodd"></path><path id="path3" d="" stroke="none" fill="#98342c" fill-rule="evenodd"></path><path id="path4" d="M174.000 119.467 L 158.000 119.606 173.918 119.670 C 184.311 119.711,189.892 119.641,190.000 119.467 C 190.091 119.320,190.128 119.229,190.082 119.264 C 190.037 119.298,182.800 119.390,174.000 119.467 M210.095 119.535 C 210.207 119.647,217.431 119.707,226.149 119.669 L 242.000 119.600 225.947 119.467 C 217.117 119.393,209.984 119.424,210.095 119.535 M198.600 119.663 C 199.370 119.717,200.630 119.717,201.400 119.663 C 202.170 119.609,201.540 119.565,200.000 119.565 C 198.460 119.565,197.830 119.609,198.600 119.663 " stroke="none" fill="#a02c2c" fill-rule="evenodd"></path></g></svg>